<svg data-v-423bf9ae="" xmlns="http://www.w3.org/2000/svg" viewBox="0 0 591 90" class="iconLeft"><!----><!----><!----><g data-v-423bf9ae="" id="20527d4a-78da-4516-920c-186b6c0b3ef9" fill="#FFFFFF" transform="matrix(5.6980053264473165,0,0,5.6980053264473165,107.83475074069588,-7.735042022120943)"><path d="M1.51 4.58L1.51 5.89L4.70 5.89L4.70 11.52C4.70 12.59 4.16 13.10 3.32 13.10C2.46 13.10 2.00 12.57 1.83 11.75L0.38 12.07C0.64 13.52 1.62 14.52 3.32 14.52C5.12 14.52 6.29 13.40 6.29 11.69L6.29 4.58ZM11.38 14.52C13.41 14.52 14.73 13.03 14.73 10.71C14.73 8.39 13.41 6.90 11.38 6.90C9.35 6.90 8.04 8.39 8.04 10.71C8.04 13.03 9.35 14.52 11.38 14.52ZM11.38 13.26C10.35 13.26 9.65 12.61 9.65 11.33L9.65 10.09C9.65 8.81 10.35 8.16 11.38 8.16C12.42 8.16 13.12 8.81 13.12 10.09L13.12 11.33C13.12 12.61 12.42 13.26 11.38 13.26ZM19.68 14.35L22.19 7.07L20.73 7.07L19.60 10.39L18.86 12.94L18.77 12.94L18.03 10.39L16.93 7.07L15.41 7.07L17.89 14.35ZM29.54 14.35L29.54 13.10L28.77 13.10L28.77 9.45C28.77 7.83 27.72 6.90 25.84 6.90C24.43 6.90 23.58 7.50 23.10 8.32L24.01 9.14C24.37 8.57 24.89 8.15 25.75 8.15C26.77 8.15 27.24 8.67 27.24 9.55L27.24 10.16L25.93 10.16C23.90 10.16 22.82 10.91 22.82 12.35C22.82 13.66 23.67 14.52 25.17 14.52C26.24 14.52 27.02 14.04 27.30 13.13L27.37 13.13C27.47 13.85 27.89 14.35 28.69 14.35ZM25.61 13.36C24.85 13.36 24.37 13.02 24.37 12.38L24.37 12.12C24.37 11.49 24.89 11.14 25.96 11.14L27.24 11.14L27.24 12.19C27.24 12.91 26.54 13.36 25.61 13.36ZM32.56 14.35L32.56 9.70C32.56 8.95 33.24 8.54 34.44 8.54L35.04 8.54L35.04 7.07L34.64 7.07C33.47 7.07 32.84 7.73 32.63 8.47L32.56 8.47L32.56 7.07L31.04 7.07L31.04 14.35ZM36.40 14.35L37.93 14.35L37.93 11.97L38.93 10.88L41.02 14.35L42.84 14.35L39.98 9.88L42.53 7.07L40.75 7.07L39.00 9.04L38.00 10.35L37.93 10.35L37.93 3.99L36.40 3.99ZM50.69 14.35L51.97 9.30L52.71 6.33L52.74 6.33L53.47 9.30L54.71 14.35L56.49 14.35L58.90 4.58L57.34 4.58L56.32 9.28L55.61 12.52L55.57 12.52L54.80 9.28L53.65 4.58L51.88 4.58L50.72 9.28L49.94 12.53L49.90 12.53L49.21 9.28L48.22 4.58L46.61 4.58L48.92 14.35ZM64.27 14.35L64.27 13.06L62.93 13.06L62.93 5.87L64.27 5.87L64.27 4.58L60.02 4.58L60.02 5.87L61.35 5.87L61.35 13.06L60.02 13.06L60.02 14.35ZM66.26 14.35L67.77 14.35L67.77 6.87L67.84 6.87L68.61 8.46L70.76 12.36L72.90 8.46L73.67 6.87L73.74 6.87L73.74 14.35L75.25 14.35L75.25 4.58L73.46 4.58L70.84 9.55L70.76 9.55L68.14 4.58L66.26 4.58ZM79.24 14.35L79.24 10.46L81.86 10.46C83.65 10.46 84.70 9.30 84.70 7.52C84.70 5.74 83.65 4.58 81.86 4.58L77.66 4.58L77.66 14.35ZM79.24 5.96L81.76 5.96C82.56 5.96 83.03 6.40 83.03 7.18L83.03 7.85C83.03 8.64 82.56 9.07 81.76 9.07L79.24 9.07Z"></path></g><!----><g data-v-423bf9ae="" id="3700c99b-b167-4b7b-b012-ebb58ce309b0" transform="matrix(2.8125,0,0,2.8125,0,0)" stroke="none" fill="#BF557B"><path d="M9.382 8.675h13.943v13.943L32 31.293V0H.707zM22.618 23.325H8.675V9.382L0 .707V32h31.293z"></path></g><!----></svg>